<svg xmlns="http://www.w3.org/2000/svg" viewBox="0 0 500 500"><g id="freepik--background-simple--inject-86"><path d="M247.65,109.87c-95.34-4.16-121,89.29-63.32,143.67,56.82,52.81,197.24,62,230.05-9.64C446,177,372,56,302.72,74.7,281.88,82.17,271.2,106.89,247.65,109.87Z" style="fill:#FF725E"></path><path d="M247.65,109.87c-95.34-4.16-121,89.29-63.32,143.67,56.82,52.81,197.24,62,230.05-9.64C446,177,372,56,302.72,74.7,281.88,82.17,271.2,106.89,247.65,109.87Z" style="fill:#fff;opacity:0.9"></path></g><g id="freepik--Shadow--inject-86"><ellipse id="freepik--path--inject-86" cx="250" cy="416.24" rx="193.89" ry="11.32" style="fill:#f5f5f5"></ellipse></g><g id="freepik--Board--inject-86"><rect x="88.05" y="123.33" width="1" height="24" transform="translate(-2.59 1.73) rotate(-1.11)" style="fill:#FF725E"></rect><rect x="88.53" y="155.01" width="1" height="10.32" transform="translate(-3.07 1.75) rotate(-1.11)" style="fill:#FF725E"></rect><polygon points="286.12 98.89 90.85 98.89 95.99 365.67 291.26 365.67 286.12 98.89" style="fill:#FF725E"></polygon><polygon points="275.38 107.67 102.85 107.67 107.65 356.24 280.17 356.24 275.38 107.67" style="fill:#fff;opacity:0.8"></polygon><polygon points="275.35 106.42 102.83 106.42 109.84 354.98 282.37 354.98 275.35 106.42" style="fill:#fff"></polygon><path d="M152.88,157.31l9.25-27.56a30.43,30.43,0,0,1,20.07,27.56,28.41,28.41,0,0,1-23.41,28.88Z" style="fill:#FF725E;opacity:0.2"></path><path d="M152.88,157.31l5.91,28.88a29.87,29.87,0,0,1-5.08.44,30.48,30.48,0,0,1-30.15-29.32A28.48,28.48,0,0,1,152.05,128a29.76,29.76,0,0,1,10.08,1.77Z" style="fill:#FF725E"></path><path d="M226,157.31,225.27,128a30.24,30.24,0,0,1,20.89,8.59c11.7,11.38,12.23,30.1,1.17,41.47s-29.77,11.38-41.47,0a30.31,30.31,0,0,1-8.58-15.64Z" style="fill:#FF725E;opacity:0.2"></path><path d="M226,157.31l-28.73,5.09a28.41,28.41,0,0,1,30.09-34.33Z" style="fill:#FF725E"></path><polygon points="262.06 332.06 127.19 332.06 125.42 269.62 126.49 269.61 128.22 330.99 262.03 330.99 262.06 332.06" style="fill:#FF725E"></polygon><path d="M262,330.32a1.23,1.23,0,0,1,1.22,1.2,1.16,1.16,0,0,1-1.17,1.2,1.23,1.23,0,0,1-1.23-1.2A1.18,1.18,0,0,1,262,330.32Z" style="fill:#FF725E"></path><path d="M127.16,269.66a1.24,1.24,0,0,0-1.24-1.19,1.17,1.17,0,0,0-1.16,1.21,1.22,1.22,0,0,0,1.23,1.19A1.17,1.17,0,0,0,127.16,269.66Z" style="fill:#FF725E"></path><polygon points="131.93 327.94 131.16 327.19 147.09 310.8 156.61 310.8 160.97 306.32 174.68 306.32 203.33 276.84 210.09 276.84 219.9 286.38 226 286.38 243.92 267.94 260.25 267.94 260.27 269 244.39 269 226.47 287.44 219.48 287.44 209.67 277.9 203.79 277.9 175.14 307.38 161.43 307.38 157.08 311.87 147.55 311.87 131.93 327.94" style="fill:#FF725E"></polygon><path d="M132.46,328.37a1.21,1.21,0,1,1,0-1.7A1.21,1.21,0,0,1,132.46,328.37Z" style="fill:#FF725E"></path><path d="M260.23,269.67a1.17,1.17,0,0,0,1.17-1.2,1.23,1.23,0,0,0-1.22-1.2,1.18,1.18,0,0,0-1.18,1.2A1.24,1.24,0,0,0,260.23,269.67Z" style="fill:#FF725E"></path><g style="opacity:0.2"><polygon points="131.76 322.03 130.99 321.28 150 301.71 165.61 301.71 176.19 312.01 188.02 312.01 198.35 301.37 211.63 301.37 215.96 296.92 228.77 296.92 237.58 287.85 241.9 287.85 262.01 307.42 261.28 308.17 241.48 288.92 238.04 288.92 229.23 297.99 216.43 297.99 212.1 302.44 198.81 302.44 188.48 313.07 175.78 313.07 165.19 302.78 150.47 302.78 131.76 322.03" style="fill:#FF725E"></polygon><path d="M132.29,322.45a1.21,1.21,0,1,1,0-1.69A1.19,1.19,0,0,1,132.29,322.45Z" style="fill:#FF725E"></path><path d="M260.77,308.61a1.19,1.19,0,1,0,0-1.7A1.21,1.21,0,0,0,260.77,308.61Z" style="fill:#FF725E"></path></g><polygon points="138.83 218.97 124.53 218.97 124.12 204.67 138.42 204.67 138.83 218.97" style="fill:#FF725E"></polygon><polygon points="212.46 214.41 147.25 214.41 147.1 209.23 212.31 209.23 212.46 214.41" style="fill:#e0e0e0"></polygon><polygon points="256.89 214.41 220.61 214.41 220.46 209.23 256.74 209.23 256.89 214.41" style="fill:#e0e0e0"></polygon><polygon points="185.4 236.97 147.88 236.97 147.74 231.79 185.25 231.79 185.4 236.97" style="fill:#e0e0e0"></polygon><polygon points="240.79 236.97 193.55 236.97 193.4 231.79 240.65 231.79 240.79 236.97" style="fill:#e0e0e0"></polygon><polygon points="139.46 241.53 125.16 241.53 124.76 227.23 139.06 227.23 139.46 241.53" style="fill:#FF725E;opacity:0.2"></polygon></g><g id="freepik--Pointer--inject-86"><polygon points="259.25 183.65 342.09 230.33 341.05 232.16 258.76 184.52 259.25 183.65" style="fill:#e0e0e0"></polygon></g></svg>